<svg xmlns="http://www.w3.org/2000/svg" viewBox="0 0 1755.03 1571.86"><defs><style>.cls-1{isolation:isolate;}.cls-2{fill:#d1c8ce;}.cls-3{fill:#9e8fae;}.cls-4{fill:#2191f2;}.cls-5{fill:#4f5569;}.cls-6{fill:#ffcb30;}.cls-7{fill:#e4464a;}.cls-8{fill:#1957c2;}.cls-9{fill:#0c97b3;}.cls-10{fill:#f5ab35;}.cls-11{fill:#031162;}.cls-12{fill:#7dadff;}.cls-13{fill:#f8f8f8;}.cls-14{opacity:0.15;mix-blend-mode:multiply;}.cls-15{fill:#ff654d;}.cls-16{fill:#000d41;}.cls-17{fill:#febac7;}.cls-18{fill:#746980;}.cls-19{fill:#2c4b80;}.cls-20{fill:#fff;}</style></defs><g class="cls-1"><g id="Layer_1" data-name="Layer 1"><path class="cls-2" d="M703,1328.49v-50l-63-17.51A159,159,0,0,0,624.85,1224l32.09-56.77-35.38-35.39-56.45,31.91a159.35,159.35,0,0,0-37.43-15.59l-17.33-62.38h-50L443,1148.17a159.45,159.45,0,0,0-37.42,15.59l-56.45-31.91-35.39,35.39L345.81,1224a159.38,159.38,0,0,0-15.11,36.92l-63,17.51v50l63.55,17.65a159.11,159.11,0,0,0,15.07,35.95l-32.56,57.6,35.39,35.39L407,1442.33A159,159,0,0,0,442.48,1457l17.83,64.19h50L528.18,1457a158.86,158.86,0,0,0,35.45-14.62l57.93,32.75,35.38-35.39-32.56-57.6a159.27,159.27,0,0,0,15.1-36Zm-217.68,69.22a95.08,95.08,0,1,1,95.08-95.08A95.07,95.07,0,0,1,485.33,1397.71Z" transform="translate(-122.9 -213.71)"/><path class="cls-2" d="M308,1250.59l5-21.28L288,1215.57a69.11,69.11,0,0,0-2.74-17.2l19.32-20.94L293,1158.85l-27.19,7.93a69.14,69.14,0,0,0-14.36-10.36l-1.14-28.26-21.27-5L215.45,1148a69.84,69.84,0,0,0-17.47,2.89l-20.82-19.2-18.58,11.51,8,27.35a69.42,69.42,0,0,0-10.11,14.19l-28.56,1.15-5,21.28L148.16,1221a69.23,69.23,0,0,0,2.82,16.79L131.38,1259l11.52,18.58,27.9-8.14a69.59,69.59,0,0,0,13.61,9.75l1.17,29.08,21.28,5,14-25.51a69.62,69.62,0,0,0,16.53-2.68l21.37,19.71,18.58-11.52-8.1-27.74a69.48,69.48,0,0,0,10-13.79Zm-99.47,7.71a41.53,41.53,0,1,1,49.92-30.94A41.53,41.53,0,0,1,208.55,1258.3Z" transform="translate(-122.9 -213.71)"/><rect class="cls-3" x="550.02" y="281.91" width="2.52" height="982.77"/><path class="cls-4" d="M385.45,552.18h0a9.91,9.91,0,0,1-9.91-9.91h0a9.91,9.91,0,0,1,9.91-9.91h0a9.91,9.91,0,0,1,9.91,9.91h0A9.91,9.91,0,0,1,385.45,552.18Z" transform="translate(-122.9 -213.71)"/><rect class="cls-3" x="280.15" y="323.1" width="90.59" height="10.11" rx="3.99"/><path class="cls-4" d="M385.45,663.4h0a9.91,9.91,0,0,1-9.91-9.91h0a9.91,9.91,0,0,1,9.91-9.9h0a9.91,9.91,0,0,1,9.91,9.9h0A9.91,9.91,0,0,1,385.45,663.4Z" transform="translate(-122.9 -213.71)"/><rect class="cls-3" x="280.15" y="434.33" width="90.59" height="10.11" rx="3.99"/><path class="cls-4" d="M385.45,808.19h0a9.91,9.91,0,0,1-9.91-9.91h0a9.91,9.91,0,0,1,9.91-9.9h0a9.91,9.91,0,0,1,9.91,9.9h0A9.91,9.91,0,0,1,385.45,808.19Z" transform="translate(-122.9 -213.71)"/><rect class="cls-3" x="280.15" y="579.12" width="90.59" height="10.11" rx="3.99"/><path class="cls-4" d="M385.45,845.6h0a9.91,9.91,0,0,1-9.91-9.9h0a9.91,9.91,0,0,1,9.91-9.91h0a9.91,9.91,0,0,1,9.91,9.91h0A9.91,9.91,0,0,1,385.45,845.6Z" transform="translate(-122.9 -213.71)"/><rect class="cls-3" x="280.15" y="616.53" width="90.59" height="10.11" rx="3.99"/><path class="cls-4" d="M413,581.3h0a9.91,9.91,0,0,1-9.91-9.91h0a9.91,9.91,0,0,1,9.91-9.91h0a9.91,9.91,0,0,1,9.91,9.91h0A9.91,9.91,0,0,1,413,581.3Z" transform="translate(-122.9 -213.71)"/><rect class="cls-3" x="307.65" y="352.22" width="90.59" height="10.11" rx="3.99"/><path class="cls-4" d="M413,610.42h0a9.91,9.91,0,0,1-9.91-9.91h0A9.91,9.91,0,0,1,413,590.6h0a9.91,9.91,0,0,1,9.91,9.91h0A9.91,9.91,0,0,1,413,610.42Z" transform="translate(-122.9 -213.71)"/><rect class="cls-3" x="307.65" y="381.34" width="124.97" height="10.11" rx="3.99"/><path class="cls-4" d="M413,691.31h0A9.91,9.91,0,0,1,403,681.4h0a9.91,9.91,0,0,1,9.91-9.91h0a9.91,9.91,0,0,1,9.91,9.91h0A9.91,9.91,0,0,1,413,691.31Z" transform="translate(-122.9 -213.71)"/><rect class="cls-3" x="307.65" y="462.23" width="152.07" height="10.11" rx="3.99"/><path class="cls-4" d="M413,720.43h0a9.91,9.91,0,0,1-9.91-9.91h0a9.91,9.91,0,0,1,9.91-9.91h0a9.91,9.91,0,0,1,9.91,9.91h0A9.91,9.91,0,0,1,413,720.43Z" transform="translate(-122.9 -213.71)"/><rect class="cls-3" x="307.65" y="491.35" width="102.73" height="10.11" rx="3.99"/><path class="cls-4" d="M438.37,747h0a7.82,7.82,0,0,1-7.82-7.82h0a7.82,7.82,0,0,1,7.82-7.82h0a7.82,7.82,0,0,1,7.82,7.82h0A7.82,7.82,0,0,1,438.37,747Z" transform="translate(-122.9 -213.71)"/><path class="cls-3" d="M617.45,742.84H456.24a4,4,0,0,1-4-4h0a4,4,0,0,1,4-4H617.45a4,4,0,0,1,4,4h0A4,4,0,0,1,617.45,742.84Z" transform="translate(-122.9 -213.71)"/><path class="cls-4" d="M438.37,770h0a7.82,7.82,0,0,1-7.82-7.82h0a7.82,7.82,0,0,1,7.82-7.82h0a7.82,7.82,0,0,1,7.82,7.82h0A7.82,7.82,0,0,1,438.37,770Z" transform="translate(-122.9 -213.71)"/><path class="cls-3" d="M551.53,765.82H456.24a4,4,0,0,1-4-4h0a4,4,0,0,1,4-4h95.29a4,4,0,0,1,4,4h0A4,4,0,0,1,551.53,765.82Z" transform="translate(-122.9 -213.71)"/><path class="cls-4" d="M385.45,887.47h0a9.91,9.91,0,0,1-9.91-9.91h0a9.91,9.91,0,0,1,9.91-9.91h0a9.91,9.91,0,0,1,9.91,9.91h0A9.91,9.91,0,0,1,385.45,887.47Z" transform="translate(-122.9 -213.71)"/><rect class="cls-3" x="280.15" y="658.39" width="90.59" height="10.11" rx="3.99"/><path class="cls-4" d="M385.45,998.69h0a9.91,9.91,0,0,1-9.91-9.91h0a9.91,9.91,0,0,1,9.91-9.91h0a9.91,9.91,0,0,1,9.91,9.91h0A9.91,9.91,0,0,1,385.45,998.69Z" transform="translate(-122.9 -213.71)"/><rect class="cls-3" x="280.15" y="769.61" width="90.59" height="10.11" rx="3.99"/><path class="cls-4" d="M385.45,1143.48h0a9.91,9.91,0,0,1-9.91-9.91h0a9.91,9.91,0,0,1,9.91-9.91h0a9.91,9.91,0,0,1,9.91,9.91h0A9.91,9.91,0,0,1,385.45,1143.48Z" transform="translate(-122.9 -213.71)"/><rect class="cls-3" x="280.15" y="914.4" width="90.59" height="10.11" rx="3.99"/><path class="cls-4" d="M385.45,1180.89h0a9.91,9.91,0,0,1-9.91-9.91h0a9.91,9.91,0,0,1,9.91-9.91h0a9.91,9.91,0,0,1,9.91,9.91h0A9.91,9.91,0,0,1,385.45,1180.89Z" transform="translate(-122.9 -213.71)"/><rect class="cls-3" x="280.15" y="951.81" width="90.59" height="10.11" rx="3.99"/><path class="cls-4" d="M413,916.59h0a9.91,9.91,0,0,1-9.91-9.91h0a9.91,9.91,0,0,1,9.91-9.91h0a9.91,9.91,0,0,1,9.91,9.91h0A9.91,9.91,0,0,1,413,916.59Z" transform="translate(-122.9 -213.71)"/><rect class="cls-3" x="307.65" y="687.51" width="90.59" height="10.11" rx="3.99"/><path class="cls-4" d="M413,945.71h0A9.91,9.91,0,0,1,403,935.8h0a9.91,9.91,0,0,1,9.91-9.91h0a9.91,9.91,0,0,1,9.91,9.91h0A9.91,9.91,0,0,1,413,945.71Z" transform="translate(-122.9 -213.71)"/><rect class="cls-3" x="307.65" y="716.63" width="124.97" height="10.11" rx="3.99"/><path class="cls-4" d="M413,1026.59h0a9.91,9.91,0,0,1-9.91-9.91h0a9.91,9.91,0,0,1,9.91-9.9h0a9.91,9.91,0,0,1,9.91,9.9h0A9.91,9.91,0,0,1,413,1026.59Z" transform="translate(-122.9 -213.71)"/><rect class="cls-3" x="307.65" y="797.52" width="152.07" height="10.11" rx="3.99"/><path class="cls-4" d="M413,1055.71h0a9.91,9.91,0,0,1-9.91-9.91h0a9.91,9.91,0,0,1,9.91-9.9h0a9.91,9.91,0,0,1,9.91,9.9h0A9.91,9.91,0,0,1,413,1055.71Z" transform="translate(-122.9 -213.71)"/><rect class="cls-3" x="307.65" y="826.64" width="102.73" height="10.11" rx="3.99"/><path class="cls-4" d="M438.37,1082.27h0a7.82,7.82,0,0,1-7.82-7.82h0a7.82,7.82,0,0,1,7.82-7.82h0a7.82,7.82,0,0,1,7.82,7.82h0A7.82,7.82,0,0,1,438.37,1082.27Z" transform="translate(-122.9 -213.71)"/><path class="cls-3" d="M617.45,1078.12H456.24a4,4,0,0,1-4-4h0a4,4,0,0,1,4-4H617.45a4,4,0,0,1,4,4h0A4,4,0,0,1,617.45,1078.12Z" transform="translate(-122.9 -213.71)"/><path class="cls-4" d="M438.37,1105.26h0a7.82,7.82,0,0,1-7.82-7.82h0a7.82,7.82,0,0,1,7.82-7.82h0a7.82,7.82,0,0,1,7.82,7.82h0A7.82,7.82,0,0,1,438.37,1105.26Z" transform="translate(-122.9 -213.71)"/><path class="cls-3" d="M551.53,1101.11H456.24a4,4,0,0,1-4-4h0a4,4,0,0,1,4-4h95.29a4,4,0,0,1,4,4h0A4,4,0,0,1,551.53,1101.11Z" transform="translate(-122.9 -213.71)"/><path class="cls-5" d="M707.56,541.87h0a8.07,8.07,0,0,1-8.07-8.07h0a8.07,8.07,0,0,1,8.07-8.07h0a8.07,8.07,0,0,1,8.07,8.07h0A8.07,8.07,0,0,1,707.56,541.87Z" transform="translate(-122.9 -213.71)"/><path class="cls-6" d="M828.67,541.87h-80.9a8.07,8.07,0,0,1-8.07-8.07h0a8.07,8.07,0,0,1,8.07-8.07h80.9a8.07,8.07,0,0,1,8.07,8.07h0A8.07,8.07,0,0,1,828.67,541.87Z" transform="translate(-122.9 -213.71)"/><path class="cls-7" d="M1029.62,541.87H868.78a8.07,8.07,0,0,1-8.07-8.07h0a8.07,8.07,0,0,1,8.07-8.07h160.84a8.07,8.07,0,0,1,8.07,8.07h0A8.07,8.07,0,0,1,1029.62,541.87Z" transform="translate(-122.9 -213.71)"/><path class="cls-5" d="M707.56,589.37h0a8.07,8.07,0,0,1-8.07-8.07h0a8.07,8.07,0,0,1,8.07-8.07h0a8.07,8.07,0,0,1,8.07,8.07h0A8.07,8.07,0,0,1,707.56,589.37Z" transform="translate(-122.9 -213.71)"/><path class="cls-8" d="M973.46,589.37H747.77a8.07,8.07,0,0,1-8.07-8.07h0a8.07,8.07,0,0,1,8.07-8.07H973.46a8.07,8.07,0,0,1,8.07,8.07h0A8.07,8.07,0,0,1,973.46,589.37Z" transform="translate(-122.9 -213.71)"/><path class="cls-6" d="M1424.12,589.37H1013.58a8.07,8.07,0,0,1-8.07-8.07h0a8.07,8.07,0,0,1,8.07-8.07h410.54a8.07,8.07,0,0,1,8.07,8.07h0A8.07,8.07,0,0,1,1424.12,589.37Z" transform="translate(-122.9 -213.71)"/><path class="cls-5" d="M707.56,636.88h0a8.07,8.07,0,0,1-8.07-8.07h0a8.07,8.07,0,0,1,8.07-8.08h0a8.08,8.08,0,0,1,8.07,8.08h0A8.08,8.08,0,0,1,707.56,636.88Z" transform="translate(-122.9 -213.71)"/><rect class="cls-8" x="616.8" y="407.03" width="97.04" height="16.14" rx="8.07"/><path class="cls-5" d="M707.56,684.38h0a8.07,8.07,0,0,1-8.07-8.07h0a8.07,8.07,0,0,1,8.07-8.07h0a8.07,8.07,0,0,1,8.07,8.07h0A8.07,8.07,0,0,1,707.56,684.38Z" transform="translate(-122.9 -213.71)"/><path class="cls-7" d="M787.79,684.38h-40a8.07,8.07,0,0,1-8.07-8.07h0a8.07,8.07,0,0,1,8.07-8.07h40a8.07,8.07,0,0,1,8.07,8.07h0A8.07,8.07,0,0,1,787.79,684.38Z" transform="translate(-122.9 -213.71)"/><path class="cls-3" d="M973.46,684.38H827.9a8.07,8.07,0,0,1-8.07-8.07h0a8.07,8.07,0,0,1,8.07-8.07H973.46a8.07,8.07,0,0,1,8.07,8.07h0A8.07,8.07,0,0,1,973.46,684.38Z" transform="translate(-122.9 -213.71)"/><path class="cls-5" d="M707.56,731.88h0a8.07,8.07,0,0,1-8.07-8.07h0a8.07,8.07,0,0,1,8.07-8.07h0a8.08,8.08,0,0,1,8.07,8.07h0A8.07,8.07,0,0,1,707.56,731.88Z" transform="translate(-122.9 -213.71)"/><path class="cls-3" d="M877.18,731.88H796.29a8.07,8.07,0,0,1-8.07-8.07h0a8.07,8.07,0,0,1,8.07-8.07h80.89a8.07,8.07,0,0,1,8.07,8.07h0A8.07,8.07,0,0,1,877.18,731.88Z" transform="translate(-122.9 -213.71)"/><path class="cls-9" d="M1114.7,731.88H917.3a8.07,8.07,0,0,1-8.07-8.07h0a8.07,8.07,0,0,1,8.07-8.07h197.4a8.07,8.07,0,0,1,8.07,8.07h0A8.07,8.07,0,0,1,1114.7,731.88Z" transform="translate(-122.9 -213.71)"/><path class="cls-5" d="M707.56,779.39h0a8.07,8.07,0,0,1-8.07-8.07h0a8.07,8.07,0,0,1,8.07-8.07h0a8.07,8.07,0,0,1,8.07,8.07h0A8.08,8.08,0,0,1,707.56,779.39Z" transform="translate(-122.9 -213.71)"/><path class="cls-6" d="M1507.5,779.39H796.29a8.07,8.07,0,0,1-8.07-8.07h0a8.07,8.07,0,0,1,8.07-8.07H1507.5a8.07,8.07,0,0,1,8.07,8.07h0A8.07,8.07,0,0,1,1507.5,779.39Z" transform="translate(-122.9 -213.71)"/><path class="cls-10" d="M1635.13,779.39h-82.06a8.07,8.07,0,0,1-8.07-8.07h0a8.07,8.07,0,0,1,8.07-8.07h82.06a8.07,8.07,0,0,1,8.07,8.07h0A8.07,8.07,0,0,1,1635.13,779.39Z" transform="translate(-122.9 -213.71)"/><path class="cls-10" d="M1635.13,778h-82.06A8.07,8.07,0,0,1,1545,770h0a8.07,8.07,0,0,1,8.07-8.07h82.06a8.07,8.07,0,0,1,8.07,8.07h0A8.07,8.07,0,0,1,1635.13,778Z" transform="translate(-122.9 -213.71)"/><path class="cls-5" d="M707.56,826.89h0a8.07,8.07,0,0,1-8.07-8.07h0a8.07,8.07,0,0,1,8.07-8.07h0a8.07,8.07,0,0,1,8.07,8.07h0A8.07,8.07,0,0,1,707.56,826.89Z" transform="translate(-122.9 -213.71)"/><path class="cls-5" d="M707.56,874.39h0a8.07,8.07,0,0,1-8.07-8.07h0a8.07,8.07,0,0,1,8.07-8.07h0a8.08,8.08,0,0,1,8.07,8.07h0A8.07,8.07,0,0,1,707.56,874.39Z" transform="translate(-122.9 -213.71)"/><path class="cls-9" d="M1441,874.39H852a8.07,8.07,0,0,1-8.07-8.07h0a8.08,8.08,0,0,1,8.07-8.07h589a8.07,8.07,0,0,1,8.07,8.07h0A8.07,8.07,0,0,1,1441,874.39Z" transform="translate(-122.9 -213.71)"/><path class="cls-6" d="M1635.13,874.39H1483a8.07,8.07,0,0,1-8.07-8.07h0a8.08,8.08,0,0,1,8.07-8.07h152.17a8.07,8.07,0,0,1,8.07,8.07h0A8.07,8.07,0,0,1,1635.13,874.39Z" transform="translate(-122.9 -213.71)"/><path class="cls-5" d="M707.56,921.9h0a8.07,8.07,0,0,1-8.07-8.07h0a8.07,8.07,0,0,1,8.07-8.07h0a8.07,8.07,0,0,1,8.07,8.07h0A8.08,8.08,0,0,1,707.56,921.9Z" transform="translate(-122.9 -213.71)"/><path class="cls-7" d="M835.87,921.9H796.29a8.07,8.07,0,0,1-8.07-8.07h0a8.07,8.07,0,0,1,8.07-8.07h39.58a8.07,8.07,0,0,1,8.07,8.07h0A8.07,8.07,0,0,1,835.87,921.9Z" transform="translate(-122.9 -213.71)"/><path class="cls-5" d="M707.56,968.78h0a8.07,8.07,0,0,1-8.07-8.07h0a8.07,8.07,0,0,1,8.07-8.07h0a8.07,8.07,0,0,1,8.07,8.07h0A8.08,8.08,0,0,1,707.56,968.78Z" transform="translate(-122.9 -213.71)"/><path class="cls-3" d="M877.18,968.78H796.29a8.07,8.07,0,0,1-8.07-8.07h0a8.07,8.07,0,0,1,8.07-8.07h80.89a8.07,8.07,0,0,1,8.07,8.07h0A8.07,8.07,0,0,1,877.18,968.78Z" transform="translate(-122.9 -213.71)"/><path class="cls-9" d="M1114.7,968.78H917.3a8.07,8.07,0,0,1-8.07-8.07h0a8.07,8.07,0,0,1,8.07-8.07h197.4a8.07,8.07,0,0,1,8.07,8.07h0A8.07,8.07,0,0,1,1114.7,968.78Z" transform="translate(-122.9 -213.71)"/><path class="cls-5" d="M707.56,1016.28h0a8.07,8.07,0,0,1-8.07-8.07h0a8.07,8.07,0,0,1,8.07-8.07h0a8.07,8.07,0,0,1,8.07,8.07h0A8.07,8.07,0,0,1,707.56,1016.28Z" transform="translate(-122.9 -213.71)"/><path class="cls-6" d="M1507.5,1016.28H796.29a8.07,8.07,0,0,1-8.07-8.07h0a8.07,8.07,0,0,1,8.07-8.07H1507.5a8.07,8.07,0,0,1,8.07,8.07h0A8.07,8.07,0,0,1,1507.5,1016.28Z" transform="translate(-122.9 -213.71)"/><path class="cls-10" d="M1635.13,1016.28h-82.06a8.07,8.07,0,0,1-8.07-8.07h0a8.07,8.07,0,0,1,8.07-8.07h82.06a8.07,8.07,0,0,1,8.07,8.07h0A8.07,8.07,0,0,1,1635.13,1016.28Z" transform="translate(-122.9 -213.71)"/><path class="cls-10" d="M1635.13,1014.94h-82.06a8.07,8.07,0,0,1-8.07-8.07h0a8.07,8.07,0,0,1,8.07-8.07h82.06a8.07,8.07,0,0,1,8.07,8.07h0A8.07,8.07,0,0,1,1635.13,1014.94Z" transform="translate(-122.9 -213.71)"/><path class="cls-5" d="M707.56,1063.78h0a8.07,8.07,0,0,1-8.07-8.07h0a8.07,8.07,0,0,1,8.07-8.07h0a8.08,8.08,0,0,1,8.07,8.07h0A8.07,8.07,0,0,1,707.56,1063.78Z" transform="translate(-122.9 -213.71)"/><path class="cls-7" d="M1838.26,1063.78H852a8.07,8.07,0,0,1-8.07-8.07h0a8.08,8.08,0,0,1,8.07-8.07h986.25a8.07,8.07,0,0,1,8.07,8.07h0A8.07,8.07,0,0,1,1838.26,1063.78Z" transform="translate(-122.9 -213.71)"/><path class="cls-5" d="M707.56,1111.29h0a8.07,8.07,0,0,1-8.07-8.07h0a8.07,8.07,0,0,1,8.07-8.07h0a8.07,8.07,0,0,1,8.07,8.07h0A8.08,8.08,0,0,1,707.56,1111.29Z" transform="translate(-122.9 -213.71)"/><path class="cls-9" d="M1016.47,1111.29H852a8.08,8.08,0,0,1-8.07-8.07h0a8.07,8.07,0,0,1,8.07-8.07h164.46a8.07,8.07,0,0,1,8.07,8.07h0A8.07,8.07,0,0,1,1016.47,1111.29Z" transform="translate(-122.9 -213.71)"/><path class="cls-3" d="M1441,1111.29H1064.28a8.08,8.08,0,0,1-8.08-8.07h0a8.07,8.07,0,0,1,8.08-8.07H1441a8.07,8.07,0,0,1,8.07,8.07h0A8.07,8.07,0,0,1,1441,1111.29Z" transform="translate(-122.9 -213.71)"/><path class="cls-6" d="M1635.13,1111.29H1483a8.08,8.08,0,0,1-8.07-8.07h0a8.07,8.07,0,0,1,8.07-8.07h152.17a8.07,8.07,0,0,1,8.07,8.07h0A8.07,8.07,0,0,1,1635.13,1111.29Z" transform="translate(-122.9 -213.71)"/><path class="cls-5" d="M707.56,1158.79h0a8.07,8.07,0,0,1-8.07-8.07h0a8.07,8.07,0,0,1,8.07-8.07h0a8.07,8.07,0,0,1,8.07,8.07h0A8.07,8.07,0,0,1,707.56,1158.79Z" transform="translate(-122.9 -213.71)"/><rect class="cls-10" x="665.32" y="928.94" width="55.73" height="16.14" rx="8.07"/><path class="cls-5" d="M707.56,1205.67h0a8.07,8.07,0,0,1-8.07-8.07h0a8.07,8.07,0,0,1,8.07-8.07h0a8.07,8.07,0,0,1,8.07,8.07h0A8.07,8.07,0,0,1,707.56,1205.67Z" transform="translate(-122.9 -213.71)"/><path class="cls-3" d="M877.18,1205.67H796.29a8.07,8.07,0,0,1-8.07-8.07h0a8.07,8.07,0,0,1,8.07-8.07h80.89a8.07,8.07,0,0,1,8.07,8.07h0A8.07,8.07,0,0,1,877.18,1205.67Z" transform="translate(-122.9 -213.71)"/><path class="cls-9" d="M1114.7,1205.67H917.3a8.07,8.07,0,0,1-8.07-8.07h0a8.07,8.07,0,0,1,8.07-8.07h197.4a8.07,8.07,0,0,1,8.07,8.07h0A8.07,8.07,0,0,1,1114.7,1205.67Z" transform="translate(-122.9 -213.71)"/><path class="cls-5" d="M707.56,1253.17h0a8.07,8.07,0,0,1-8.07-8.07h0a8.07,8.07,0,0,1,8.07-8.07h0a8.08,8.08,0,0,1,8.07,8.07h0A8.07,8.07,0,0,1,707.56,1253.17Z" transform="translate(-122.9 -213.71)"/><path class="cls-6" d="M1507.5,1253.17H796.29a8.07,8.07,0,0,1-8.07-8.07h0a8.07,8.07,0,0,1,8.07-8.07H1507.5a8.07,8.07,0,0,1,8.07,8.07h0A8.07,8.07,0,0,1,1507.5,1253.17Z" transform="translate(-122.9 -213.71)"/><path class="cls-10" d="M1635.13,1253.17h-82.06a8.07,8.07,0,0,1-8.07-8.07h0a8.07,8.07,0,0,1,8.07-8.07h82.06a8.07,8.07,0,0,1,8.07,8.07h0A8.07,8.07,0,0,1,1635.13,1253.17Z" transform="translate(-122.9 -213.71)"/><path class="cls-6" d="M1635.13,1251.83h-82.06a8.07,8.07,0,0,1-8.07-8.07h0a8.07,8.07,0,0,1,8.07-8.07h82.06a8.07,8.07,0,0,1,8.07,8.07h0A8.07,8.07,0,0,1,1635.13,1251.83Z" transform="translate(-122.9 -213.71)"/><path class="cls-5" d="M707.56,1300.68h0a8.07,8.07,0,0,1-8.07-8.07h0a8.07,8.07,0,0,1,8.07-8.07h0a8.07,8.07,0,0,1,8.07,8.07h0A8.08,8.08,0,0,1,707.56,1300.68Z" transform="translate(-122.9 -213.71)"/><path class="cls-9" d="M1838.26,1300.68H852a8.08,8.08,0,0,1-8.07-8.07h0a8.07,8.07,0,0,1,8.07-8.07h986.25a8.07,8.07,0,0,1,8.07,8.07h0A8.07,8.07,0,0,1,1838.26,1300.68Z" transform="translate(-122.9 -213.71)"/><path class="cls-5" d="M707.56,1348.18h0a8.07,8.07,0,0,1-8.07-8.07h0a8.07,8.07,0,0,1,8.07-8.07h0a8.07,8.07,0,0,1,8.07,8.07h0A8.07,8.07,0,0,1,707.56,1348.18Z" transform="translate(-122.9 -213.71)"/><path class="cls-3" d="M1441,1348.18H852a8.07,8.07,0,0,1-8.07-8.07h0A8.07,8.07,0,0,1,852,1332h589a8.07,8.07,0,0,1,8.07,8.07h0A8.07,8.07,0,0,1,1441,1348.18Z" transform="translate(-122.9 -213.71)"/><path class="cls-7" d="M1635.13,1348.18H1483a8.07,8.07,0,0,1-8.07-8.07h0A8.07,8.07,0,0,1,1483,1332h152.17a8.07,8.07,0,0,1,8.07,8.07h0A8.07,8.07,0,0,1,1635.13,1348.18Z" transform="translate(-122.9 -213.71)"/><path class="cls-3" d="M1838.26,1348.18H1686.09a8.07,8.07,0,0,1-8.07-8.07h0a8.07,8.07,0,0,1,8.07-8.07h152.17a8.07,8.07,0,0,1,8.07,8.07h0A8.07,8.07,0,0,1,1838.26,1348.18Z" transform="translate(-122.9 -213.71)"/><path class="cls-5" d="M707.56,1395.68h0a8.07,8.07,0,0,1-8.07-8.07h0a8.07,8.07,0,0,1,8.07-8.07h0a8.08,8.08,0,0,1,8.07,8.07h0A8.07,8.07,0,0,1,707.56,1395.68Z" transform="translate(-122.9 -213.71)"/><path class="cls-10" d="M835.87,1395.68H796.29a8.07,8.07,0,0,1-8.07-8.07h0a8.07,8.07,0,0,1,8.07-8.07h39.58a8.07,8.07,0,0,1,8.07,8.07h0A8.07,8.07,0,0,1,835.87,1395.68Z" transform="translate(-122.9 -213.71)"/><path class="cls-8" d="M659.71,1318.63c-18.08-20.56-18.35-52-8.86-77.69s27.12-47.36,42.7-69.87,29.75-47.6,30.62-75c1.63-50.77-41.31-90.9-59-138.52a151.39,151.39,0,0,1-8.56-37.23c-10.81-107.9,47.93-228.31,152.18-265,13.22-5.87,30.84,2.94,30.84,16.15,1.47,29.37-26.43,52.87-26.43,83.7,0,2.94,1.47,8.81,2.94,10.28C869,794.84,879.32,847.7,825,883c-4.41,4.4-5.88,10.27-9,15.7C812.39,908,812,918,813.55,928a104,104,0,0,0,9.62,28.79c8.84,18,20.88,34.59,27.42,53.59,17.86,51.9-9,108.3-40.81,153s-70.73,87.72-81.13,141.62c-3.33,17.26-3.68,35.5-11.46,51.27s-26.63,28.22-42.77,21.27l-3.21-14.22" transform="translate(-122.9 -213.71)"/><path class="cls-11" d="M704.81,1157.92l-1.45-1.74c73.46-60.91,51.61-152.16,30.48-240.4-1.82-7.61-3.64-15.21-5.4-22.79-11.71-50.41,4.17-94.07,19.57-121.83,16.66-30,36.36-48.43,36.56-48.61l1.54,1.66c-.78.72-77.57,73.13-55.47,168.27,1.76,7.57,3.58,15.17,5.4,22.78C757.33,1004.17,779.35,1096.11,704.81,1157.92Z" transform="translate(-122.9 -213.71)"/><path class="cls-12" d="M508.81,1011.17c-27.1-30.69-45.08-72.18-37.87-112.47s45.2-75.82,85.86-71c-22.59-35.28-45.89-72.69-48-114.52S534.32,624.8,576.12,622c17.74-1.18,34.88,7,47,19.84,12.4,13.49,19.74,31.11,18.27,48.73-8.81-11.74,2.94-26.43,14.69-29.37a25.51,25.51,0,0,1,20.56,4.41c11.74,10.28,19.08,25,16.15,39.65-8.81,35.24-33.78,67.54-16.15,104.25,27.9,55.8,52.86,110.14,65.47,170.71,2.47,9.83,4.77,19.72,6.79,29.67s3.77,20,5.23,30c3.88,26.83,5.53,55.18-5.09,80.12-12.66,29.71-41.35,51.2-50.29,82.23-14.18,49.2,25.81,105.69,1.88,151-17.33,32.79-63.89,38.74-94.3,21.88-43.35-24-44.42-81-33.37-123.56,10.44-40.25,33.46-74.91,27.08-118.82A104,104,0,0,0,585,1092.31C565.75,1061.33,533.18,1038.77,508.81,1011.17Z" transform="translate(-122.9 -213.71)"/><polygon class="cls-6" points="375.48 1097.55 678.29 1097.55 596.9 1259.68 447.17 1259.68 375.48 1097.55"/><path class="cls-11" d="M648.76,1302.93c-.31-.65-7.58-16.35-9-46.94-1.36-28.14,2.25-74.68,27.11-136.56,33.93-84.49-10.73-169-43.33-230.63C610.2,863.67,598.72,842,595.3,825.42,583.6,768.91,616.59,701,616.92,700.36l2,1c-.33.67-33,67.86-21.44,123.6,3.36,16.22,14.76,37.8,28,62.79,32.82,62.06,77.76,147.06,43.43,232.52-24.66,61.42-28.27,107.55-26.95,135.44,1.42,30.2,8.77,46.1,8.84,46.25Z" transform="translate(-122.9 -213.71)"/><path class="cls-11" d="M669,1120l-2.25-.26c4.44-38-3.87-94.92-68.63-150.63-38.81-33.39-80-50.67-80.46-50.84l.87-2.09a341.36,341.36,0,0,1,81.07,51.22C635.74,998.48,677.14,1050.21,669,1120Z" transform="translate(-122.9 -213.71)"/><path class="cls-11" d="M612.16,867.07c-14.18-47.2-1.12-84,12.32-106.56,14.56-24.44,32.75-37.91,32.93-38l1.33,1.82c-.18.13-18,13.39-32.36,37.45-13.19,22.16-26,58.31-12.06,104.68Z" transform="translate(-122.9 -213.71)"/><path class="cls-11" d="M661,1141.4l-2.26-.15c2.44-35.75-3.16-84.81-43.71-115.53-24.24-18.37-49.81-21.49-50.06-21.52l.25-2.24c.27,0,26.45,3.22,51.18,22C657.73,1055.25,663.45,1105.1,661,1141.4Z" transform="translate(-122.9 -213.71)"/><path class="cls-11" d="M738.57,926.1l-2.25-.2c2.83-32.33,12.63-75.72,43.26-98.82C798,813.19,815,813.29,815.7,813.29l0,2.26c-.18,0-17-.06-34.85,13.43C751,851.61,741.36,894.28,738.57,926.1Z" transform="translate(-122.9 -213.71)"/><path class="cls-11" d="M504.36,913.24a7.12,7.12,0,1,1,7.12-7.12A7.12,7.12,0,0,1,504.36,913.24Zm0-12a4.86,4.86,0,1,0,4.86,4.86A4.87,4.87,0,0,0,504.36,901.26Z" transform="translate(-122.9 -213.71)"/><path class="cls-11" d="M828.17,815.55a5.78,5.78,0,1,1,5.78-5.78A5.78,5.78,0,0,1,828.17,815.55Zm0-9.3a3.52,3.52,0,1,0,3.52,3.52A3.53,3.53,0,0,0,828.17,806.25Z" transform="translate(-122.9 -213.71)"/><path class="cls-11" d="M548.56,1009.62a6.64,6.64,0,1,1,6.63-6.63A6.64,6.64,0,0,1,548.56,1009.62Zm0-11a4.38,4.38,0,1,0,4.37,4.38A4.39,4.39,0,0,0,548.56,998.61Z" transform="translate(-122.9 -213.71)"/><path class="cls-11" d="M621.39,695.53a5.61,5.61,0,1,1,5.61-5.61A5.62,5.62,0,0,1,621.39,695.53Zm0-9a3.35,3.35,0,1,0,3.35,3.35A3.36,3.36,0,0,0,621.39,686.57Z" transform="translate(-122.9 -213.71)"/><path class="cls-11" d="M667.65,722.7a5.61,5.61,0,1,1,5.6-5.61A5.61,5.61,0,0,1,667.65,722.7Zm0-9a3.35,3.35,0,1,0,3.34,3.35A3.35,3.35,0,0,0,667.65,713.74Z" transform="translate(-122.9 -213.71)"/><path class="cls-11" d="M794.66,717.85a8.25,8.25,0,1,1,8.25-8.25A8.26,8.26,0,0,1,794.66,717.85Zm0-14.24a6,6,0,1,0,6,6A6,6,0,0,0,794.66,703.61Z" transform="translate(-122.9 -213.71)"/><path class="cls-6" d="M1309.59,1004.61a65.81,65.81,0,1,1-65.81-65.81A65.8,65.8,0,0,1,1309.59,1004.61Z" transform="translate(-122.9 -213.71)"/><path class="cls-13" d="M1209.61,1048.55a3.86,3.86,0,0,0,2.68-6.65c-14.37-13.81-14.53-33.88-14.53-34.09a3.86,3.86,0,1,0-7.72,0c0,1,.19,23.59,16.9,39.66A3.84,3.84,0,0,0,1209.61,1048.55Z" transform="translate(-122.9 -213.71)"/><polygon class="cls-11" points="1396.7 1181.79 1450.64 904.47 1243.42 682 1254.28 666.75 1472.42 897.7 1417.85 1178.82 1396.7 1181.79"/><polygon class="cls-11" points="1267.32 680.55 1291.54 706.2 1265.96 706.2 1257.63 697.26 1267.32 680.55"/><polygon class="cls-11" points="1461.65 953.18 1445.09 932.99 1446.13 927.68 1466.92 926.04 1461.65 953.18"/><path class="cls-13" d="M1459.84,1430.38a2.7,2.7,0,0,1-2.7,2.7h-35.77a2.71,2.71,0,0,1-2.71-2.7v-27a2.7,2.7,0,0,1,2.71-2.7h35.77a2.7,2.7,0,0,1,2.7,2.7Z" transform="translate(-122.9 -213.71)"/><path class="cls-11" d="M1530.17,1404.84c-88.13,0-159.58,20.57-159.58,57.42h319.16C1689.75,1425.41,1618.31,1404.84,1530.17,1404.84Z" transform="translate(-122.9 -213.71)"/><path class="cls-11" d="M1530.17,1427.81c-16,0-12.83-12.15-6.85-22.93,2.27,0,4.55,0,6.85,0a493.13,493.13,0,0,1,55.33,3C1576.61,1413.7,1552.93,1427.81,1530.17,1427.81Z" transform="translate(-122.9 -213.71)"/><path class="cls-8" d="M1395.2,914a33.8,33.8,0,1,1,.88-47.78A33.8,33.8,0,0,1,1395.2,914Z" transform="translate(-122.9 -213.71)"/><path class="cls-11" d="M1383.07,901.41a16.32,16.32,0,1,1,.43-23.08A16.32,16.32,0,0,1,1383.07,901.41Z" transform="translate(-122.9 -213.71)"/><path class="cls-8" d="M1618,1114.68a33.8,33.8,0,1,1-33.8-33.8A33.81,33.81,0,0,1,1618,1114.68Z" transform="translate(-122.9 -213.71)"/><path class="cls-11" d="M1600.47,1114.68a16.33,16.33,0,1,1-16.32-16.33A16.32,16.32,0,0,1,1600.47,1114.68Z" transform="translate(-122.9 -213.71)"/><path class="cls-8" d="M1564,1394a33.8,33.8,0,1,1-33.79-33.8A33.79,33.79,0,0,1,1564,1394Z" transform="translate(-122.9 -213.71)"/><path class="cls-11" d="M1546.49,1394a16.33,16.33,0,1,1-16.32-16.32A16.33,16.33,0,0,1,1546.49,1394Z" transform="translate(-122.9 -213.71)"/><rect class="cls-11" x="1337.88" y="885.57" width="21.14" height="51.75" transform="translate(-377.83 977.38) rotate(-43.95)"/><path class="cls-8" d="M1161,959.13c65.76-63.38,126.82-104.49,186.22-45.09,54.6,54.6,13.85,121-51.91,184.43Z" transform="translate(-122.9 -213.71)"/><path class="cls-13" d="M1371.66,877.9a11.24,11.24,0,1,0,11.23,11.24A11.23,11.23,0,0,0,1371.66,877.9Z" transform="translate(-122.9 -213.71)"/><path class="cls-13" d="M1584.15,1103.22a11.24,11.24,0,1,0,11.24,11.24A11.24,11.24,0,0,0,1584.15,1103.22Z" transform="translate(-122.9 -213.71)"/><path class="cls-13" d="M1530.17,1382.77A11.25,11.25,0,1,0,1541.4,1394,11.24,11.24,0,0,0,1530.17,1382.77Z" transform="translate(-122.9 -213.71)"/><path class="cls-14" d="M1440.63,1541.78c-1.47-17.49-18.14-30.56-35.34-34s-34.92.55-52.08,4.18a1377.18,1377.18,0,0,1-617.31-11.53c-19.58-4.91-39.42-10.3-59.59-9.53s-41.2,8.78-52.47,25.54c-17.45,26-4.27,63.87,21.14,82.1s58.79,20.89,90,18.73,62.36-8.49,93.51-5.73c30.09,2.66,62.69,17.35,72,46.1,5.57,17.28-13,118.59,34.57,94.9,15.46-7.69,15.36-34.54,26.94-47.71,13-14.78,32.33-24.2,52.12-24.19,28,0,55,18.84,64.63,45.07,7.37,20,8.44,47,28.35,54.53s39.1-12.3,51.35-29.88l32.42-46.51c9.84-14.12,20-29.08,21.65-46.22s-8.68-36.72-25.75-38.91a744.9,744.9,0,0,1,176.68-30c16.93-.81,34.4-1.14,49.91-8S1442.05,1558.67,1440.63,1541.78Z" transform="translate(-122.9 -213.71)"/><polygon class="cls-11" points="686.71 1187.97 1167.66 1166.98 1137.92 1275.68 857.89 1393.12 679.55 1313.63 686.71 1187.97"/><polygon class="cls-15" points="738.02 1141.95 742.19 1227.44 1109.69 1227.44 1118.96 1048.47 738.02 1141.95"/><path class="cls-15" d="M979.09,1023.7s-156.93,31.81-185.8,55.5-57.45,314.44-47.7,327.86,597.09,27.12,610.62,2-61.88-326.25-82.19-341.34S1028.84,1020.31,979.09,1023.7Z" transform="translate(-122.9 -213.71)"/><path class="cls-16" d="M1232.63,1331.31h-.15a1.73,1.73,0,0,1-1.58-1.87c4.79-55.39,0-211.37,0-212.94a1.73,1.73,0,1,1,3.45-.11c.05,1.57,4.81,157.76,0,213.35A1.74,1.74,0,0,1,1232.63,1331.31Z" transform="translate(-122.9 -213.71)"/><path class="cls-16" d="M844.89,1325.64h-.2a1.73,1.73,0,0,1-1.52-1.92c7.5-65.57-6-200.26-6.15-201.61a1.73,1.73,0,0,1,3.44-.35c.13,1.36,13.68,136.42,6.15,202.35A1.74,1.74,0,0,1,844.89,1325.64Z" transform="translate(-122.9 -213.71)"/><path class="cls-17" d="M899.4,1395,892,1365a4,4,0,0,1,2.7-4.78l10.14-3.15a4,4,0,0,0,2.75-3.08l1.72-9.31a4,4,0,0,1,3.93-3.27h8.3a4,4,0,0,0,3.39-1.87l5.06-8.1a4,4,0,0,1,5.43-1.32l9.6,5.69a4,4,0,0,0,4,.05l5.64-3.15a4,4,0,0,1,5.28,1.28l20.21,30.54a4,4,0,0,1-1.25,5.61l-4.48,2.74a4,4,0,0,1-5.07-.76h0a4,4,0,0,0-7,3.26l.21,1.33a4,4,0,0,1-2.18,4.2l-39.62,19.55a4.17,4.17,0,0,1-.81.3c-2.49.62-14.66,3.17-20-4.54A3.69,3.69,0,0,1,899.4,1395Z" transform="translate(-122.9 -213.71)"/><path class="cls-17" d="M1178.59,1395l7.42-30a4,4,0,0,0-2.7-4.78l-10.14-3.15a4,4,0,0,1-2.75-3.08l-1.72-9.31a4,4,0,0,0-3.93-3.27h-8.3a4,4,0,0,1-3.39-1.87l-5.06-8.1a4,4,0,0,0-5.43-1.32l-9.6,5.69a4,4,0,0,1-4,.05l-5.64-3.15a4,4,0,0,0-5.28,1.28l-20.21,30.54a4,4,0,0,0,1.25,5.61l4.48,2.74a4,4,0,0,0,5.07-.76h0a4,4,0,0,1,6.95,3.26l-.21,1.33a4,4,0,0,0,2.18,4.2l39.62,19.55a4.17,4.17,0,0,0,.81.3c2.49.62,14.66,3.17,20-4.54A3.69,3.69,0,0,0,1178.59,1395Z" transform="translate(-122.9 -213.71)"/><path class="cls-16" d="M891.87,1354.79l-.26,0-94-13.84a1.73,1.73,0,0,1,.5-3.42l94,13.84a1.73,1.73,0,0,1-.25,3.44Z" transform="translate(-122.9 -213.71)"/><path class="cls-16" d="M1194.4,1359.77a1.73,1.73,0,0,1-.3-3.43l76.38-13.63a1.73,1.73,0,0,1,.61,3.41l-76.39,13.62Z" transform="translate(-122.9 -213.71)"/><path class="cls-17" d="M954,956.41s-13.19,113.36,67.54,113.36c73.44,0,70.88-97.53,70.88-97.53s7.34-60.36-49.59-67.19S950.58,936,954,956.41Z" transform="translate(-122.9 -213.71)"/><path class="cls-11" d="M1072.9,919.22s-17.94,35.14.24,53a46.3,46.3,0,0,1,13,43.65l-.2.85s30.49-24.15,36.14-73.11-16.57-79.77-35.38-76.29c0,0-7.49-37.62-55.27-34.1s-87.21-.36-104.51,37.51,12.86,71,12.86,71,2.35,40.08,18.66,75l-6.37-46.81S1004.58,899.38,1072.9,919.22Z" transform="translate(-122.9 -213.71)"/><path class="cls-17" d="M1091.52,978.32,1086,1016.7s27.14-14.41,26.71-34c-.15-6.51-2.41-10.11-5.36-12C1101,966.68,1092.6,970.91,1091.52,978.32Z" transform="translate(-122.9 -213.71)"/><path class="cls-17" d="M954.17,967.28l4.7,49.42S932.8,1001.59,933.23,982,954.17,967.28,954.17,967.28Z" transform="translate(-122.9 -213.71)"/><rect class="cls-13" x="751.35" y="1018.43" width="315.15" height="222.71" rx="21.64"/><path class="cls-18" d="M1184.16,1465.32H879.49a5.24,5.24,0,0,1-5.24-5.24h0a5.25,5.25,0,0,1,5.24-5.24h304.67a5.25,5.25,0,0,1,5.24,5.24h0A5.24,5.24,0,0,1,1184.16,1465.32Z" transform="translate(-122.9 -213.71)"/><path class="cls-3" d="M1138.82,1459.69a2.23,2.23,0,1,1-2.23-2.24A2.23,2.23,0,0,1,1138.82,1459.69Z" transform="translate(-122.9 -213.71)"/><rect class="cls-3" x="988.04" y="1243.75" width="18.03" height="4.47"/><path class="cls-8" d="M708.42,1328.84l417.46,253.46c-33.61,27.29-52.31,62.94-59.83,104.87l-434.85-219a79.71,79.71,0,0,1-28.84-117.77h0A79.71,79.71,0,0,1,708.42,1328.84Z" transform="translate(-122.9 -213.71)"/><path class="cls-11" d="M1005.16,1620.78l-26.51,22.38,52.44,26.41c15.69-13.51,46.28-39.56,50.84-41.3C1088.09,1625.92,1005.16,1620.78,1005.16,1620.78Z" transform="translate(-122.9 -213.71)"/><path class="cls-11" d="M1125.88,1582.3l69.53,39.18a10.71,10.71,0,0,1,4,14.68c-18.34,32-79.51,135.36-111.84,149.41,0,0-26.1-8.38-16.1-42.51s-3.46-65.69-3.46-65.69S1070.31,1597.82,1125.88,1582.3Z" transform="translate(-122.9 -213.71)"/><path class="cls-19" d="M1087.6,1785.57c32.33-14,93.5-117.43,111.84-149.41a10.72,10.72,0,0,0-1.22-12.38C1185.8,1631.13,1132,1668.49,1087.6,1785.57Z" transform="translate(-122.9 -213.71)"/><path class="cls-8" d="M1345,1357.46,903.94,1567.15c30.66,30.57,45.64,67.93,48.86,110.41l454.86-173.63a79.72,79.72,0,0,0,40.67-114.23h0A79.72,79.72,0,0,0,1345,1357.46Z" transform="translate(-122.9 -213.71)"/><path class="cls-11" d="M903.94,1567.15l-73.15,31.91a10.72,10.72,0,0,0-5.51,14.19c15,33.68,65.34,142.74,96.07,160,0,0,26.82-5.68,20.34-40.65s10.12-65,10.12-65S957.64,1588.24,903.94,1567.15Z" transform="translate(-122.9 -213.71)"/><path class="cls-19" d="M921.35,1773.26c-30.73-17.27-81.08-126.33-96.07-160a10.71,10.71,0,0,1,2.48-12.19C839.37,1609.63,889.09,1652.27,921.35,1773.26Z" transform="translate(-122.9 -213.71)"/><path class="cls-15" d="M746.33,1332.23c-3.11,40.55-3.73,70.71-.74,74.83,2.75,3.77,51.14,7.56,119.6,10.51Z" transform="translate(-122.9 -213.71)"/><path class="cls-15" d="M1186.8,1422.77c92.91-1.07,164.78-5.13,169.41-13.73,3.32-6.16,1.3-28.87-3.94-59.87Z" transform="translate(-122.9 -213.71)"/><path class="cls-16" d="M920.84,1560.85a1.75,1.75,0,0,1-1.57-1,1.73,1.73,0,0,1,.82-2.3L999.21,1520a1.73,1.73,0,1,1,1.48,3.12l-79.11,37.61A1.81,1.81,0,0,1,920.84,1560.85Z" transform="translate(-122.9 -213.71)"/><rect class="cls-15" x="365.29" y="153.26" width="225.82" height="142.12" rx="20.14"/><polygon class="cls-13" points="448.34 264.14 463.05 264.14 505.38 184.49 490.67 184.49 448.34 264.14"/><polygon class="cls-13" points="552.81 226.68 552.71 226.68 529.93 194.46 514.31 194.46 537.14 226.77 514.31 257.55 529.93 257.55 552.71 226.86 552.81 226.86 552.76 226.77 552.81 226.68"/><polygon class="cls-13" points="403.59 226.68 403.69 226.68 426.47 194.46 440.74 194.46 417.91 226.77 440.74 257.55 426.47 257.55 403.69 226.86 403.59 226.86 403.64 226.77 403.59 226.68"/><rect class="cls-8" x="1160.72" y="322.04" width="270.08" height="169.97" rx="24.08"/><path class="cls-13" d="M1357.18,616.64a16.49,16.49,0,0,1-4.87,3.85l-2.6,1.7a18,18,0,0,0,2.6,1.69,34.29,34.29,0,0,1,3.68,2.61,6.87,6.87,0,0,1,1.87,2.71,12.88,12.88,0,0,1,.68,4.64v20.69c0,2.94.84,5.05,2.54,6.34s4.54,1.92,8.54,1.92v8.59h-4q-9,0-13-3.16t-3.9-10.64V633.16q0-3.51-1.25-5a4.62,4.62,0,0,0-3.84-1.53h-3.28v-8.71h3.28a4.65,4.65,0,0,0,3.84-1.53q1.25-1.51,1.25-5V586.9q0-7.35,3.9-10.57t13-3.22h4v8.59c-4,0-6.84.64-8.54,1.92s-2.54,3.4-2.54,6.34v20.8C1358.54,613.48,1358.08,615.44,1357.18,616.64Z" transform="translate(-122.9 -213.71)"/><path class="cls-13" d="M1496.87,617.89v8.71h-3.28a4.63,4.63,0,0,0-3.84,1.53q-1.24,1.51-1.24,5v24.42q0,7.47-3.91,10.64t-12.94,3.16h-4v-8.59c4,0,6.84-.64,8.53-1.92s2.55-3.4,2.55-6.34V633.84a12.66,12.66,0,0,1,.68-4.64,6.75,6.75,0,0,1,1.86-2.71,35.36,35.36,0,0,1,3.68-2.61,17.43,17.43,0,0,0,2.6-1.69l-2.6-1.7a16.49,16.49,0,0,1-4.87-3.85q-1.35-1.8-1.35-5.88V590c0-2.94-.85-5.06-2.55-6.34s-4.54-1.92-8.53-1.92v-8.59h4q9,0,12.94,3.22t3.91,10.57v24.43q0,3.51,1.24,5a4.66,4.66,0,0,0,3.84,1.53Z" transform="translate(-122.9 -213.71)"/><circle class="cls-8" cx="1350.94" cy="305.72" r="72.35" transform="translate(737 1387.15) rotate(-81.99)"/><path class="cls-20" d="M1317.49,288.14l-1.42,8.91,9.67,1.54,1.43-8.91,4.82.77-3.42,21.37-4.82-.77,1.35-8.43-9.68-1.54-1.34,8.42-4.82-.77,3.41-21.36Z" transform="translate(-122.9 -213.71)"/><path class="cls-20" d="M1352.44,293.72l-.65,4.09-6.54-1L1342.49,314l-4.82-.77,2.76-17.27-6.5-1,.65-4.09Z" transform="translate(-122.9 -213.71)"/><path class="cls-20" d="M1360.44,295l4.14,14.06,8.28-12.08,5.37.86-3.41,21.37-4.34-.7,2.3-14.4-7.63,11.33-3.14-.5-3.72-13.15L1356,316.2l-4.37-.7,3.42-21.36Z" transform="translate(-122.9 -213.71)"/><path class="cls-20" d="M1387.79,299.37l-2.74,17.15,9.15,1.46-.67,4.22-14-2.24L1383,298.6Z" transform="translate(-122.9 -213.71)"/><circle class="cls-8" cx="200.36" cy="969.16" r="57.92" transform="translate(-483.67 -59.75) rotate(-22.86)"/><path class="cls-20" d="M178.88,984.32a15.64,15.64,0,0,1-11.73-6.85l4.4-5.65c2.38,3,5.25,4.64,7.55,4.83,2.77.24,4.62-1.33,4.89-4.53l1.53-18L172.66,953l.61-7.15,21.34,1.8-2.15,25.4C191.8,980.89,186.62,985,178.88,984.32Z" transform="translate(-122.9 -213.71)"/><path class="cls-20" d="M214.5,956.21c-2.83-.23-4.83.62-5,2.64-.59,6.89,19.64,4.73,18.45,18.17-.62,7.31-7.3,10.72-15.57,10a26.3,26.3,0,0,1-16-7.32l4-6.59c3.55,3.74,8.81,6.38,12.76,6.72,3.46.29,5.65-.81,5.85-3.11.59-7-19.66-4.62-18.54-17.85.57-6.77,6.75-10.55,15.4-9.82a26.75,26.75,0,0,1,13.84,5.26L225.81,961C222.06,958.36,217.49,956.47,214.5,956.21Z" transform="translate(-122.9 -213.71)"/><path class="cls-6" d="M1505.06,1161.85h100.13a18.58,18.58,0,0,1,18.58,18.58v94a18.58,18.58,0,0,1-18.58,18.58H1505.06a18.59,18.59,0,0,1-18.59-18.59v-94A18.59,18.59,0,0,1,1505.06,1161.85Z"/><path class="cls-20" d="M1683.38,1406.48v9.43l2.36.74a26.07,26.07,0,0,1,4.17,1.74l2.21,1.16,1.76-1.76,4.9-4.9,7.54,7.53-4.91,4.92-1.76,1.75,1.15,2.21a25,25,0,0,1,1.73,4.17l.74,2.38h9.42v10.65h-9.43l-.75,2.37a24.7,24.7,0,0,1-1.74,4.17l-1.15,2.21,1.76,1.76,4.9,4.9-7.53,7.54-4.92-4.92-1.75-1.76-2.21,1.15a26.3,26.3,0,0,1-4.17,1.74l-2.38.74v9.41h-10.65v-9.42l-2.37-.75a25.55,25.55,0,0,1-4.17-1.74l-2.21-1.15-1.76,1.76-4.9,4.9-7.54-7.54,4.92-4.91,1.75-1.76-1.15-2.2a26.25,26.25,0,0,1-1.73-4.17l-.74-2.38h-9.41v-10.66h9.42l.75-2.37a25,25,0,0,1,1.74-4.17l1.15-2.2-1.76-1.76-4.9-4.91,7.54-7.53,4.91,4.91,1.76,1.76,2.2-1.15a25.35,25.35,0,0,1,4.17-1.73l2.38-.74v-9.42h10.66m3.38-3.38h-17.43v10.31a28.39,28.39,0,0,0-4.73,2l-7.3-7.31L1645,1420.38l7.3,7.3a28.57,28.57,0,0,0-2,4.73H1640v17.43h10.31a28.79,28.79,0,0,0,2,4.72l-7.31,7.31,12.33,12.33,7.3-7.3a28.83,28.83,0,0,0,4.72,2v10.33h17.43v-10.31a30.19,30.19,0,0,0,4.73-2l7.31,7.31,12.32-12.33-7.3-7.3a28,28,0,0,0,2-4.72h10.33v-17.43h-10.31a28.89,28.89,0,0,0-2-4.73l7.31-7.31-12.33-12.32-7.29,7.29a29.84,29.84,0,0,0-4.73-2V1403.1Z" transform="translate(-122.9 -213.71)"/><path class="cls-20" d="M1678,1426.21a14.94,14.94,0,1,1-14.93,14.94,15,15,0,0,1,14.93-14.94m0-3.38a18.32,18.32,0,1,0,18.32,18.32,18.32,18.32,0,0,0-18.32-18.32Z" transform="translate(-122.9 -213.71)"/><circle class="cls-15" cx="1678.02" cy="509.08" r="71.5" transform="translate(674.13 1811.54) rotate(-76.72)"/><path class="cls-20" d="M1651.69,500.73a10.06,10.06,0,0,0,0,20.11,12.6,12.6,0,0,0,8.49-3.83l4.34,4.72a19.15,19.15,0,0,1-13.21,5.83c-9.75,0-17.12-7.23-17.12-16.71s7.51-16.52,17.4-16.52a18.57,18.57,0,0,1,12.88,5.42l-4.29,5.22A11.84,11.84,0,0,0,1651.69,500.73Z" transform="translate(-122.9 -213.71)"/><path class="cls-20" d="M1680.23,500.54c-2.47,0-4.15.89-4.15,2.66,0,6,17.4,2.66,17.35,14.42,0,6.39-5.55,9.85-12.78,9.85a23,23,0,0,1-14.42-5.18l2.94-6c3.36,3,8.12,4.9,11.57,4.9,3,0,4.85-1.12,4.85-3.13,0-6.16-17.4-2.57-17.4-14.14,0-5.93,5.08-9.66,12.64-9.66a23.34,23.34,0,0,1,12.42,3.55l-2.85,6.11C1687,501.85,1682.84,500.54,1680.23,500.54Z" transform="translate(-122.9 -213.71)"/><path class="cls-20" d="M1709.94,500.54c-2.47,0-4.15.89-4.15,2.66,0,6,17.4,2.66,17.35,14.42,0,6.39-5.55,9.85-12.78,9.85a23,23,0,0,1-14.42-5.18l2.94-6c3.36,3,8.12,4.9,11.57,4.9,3,0,4.85-1.12,4.85-3.13,0-6.16-17.4-2.57-17.4-14.14,0-5.93,5.08-9.66,12.64-9.66a23.34,23.34,0,0,1,12.42,3.55l-2.85,6.11C1716.66,501.85,1712.55,500.54,1709.94,500.54Z" transform="translate(-122.9 -213.71)"/><circle class="cls-15" cx="1110.93" cy="438.02" r="58.67" transform="translate(107.83 1031.33) rotate(-64.03)"/><path class="cls-20" d="M1078.7,424.66l5,9,5.21-8.92,6.49.09-8.27,13.95,8.58,15.44-6.55-.09-5.6-9.85-5.74,9.71-6.42-.09,8.9-14.91-7.93-14.46Z" transform="translate(-122.9 -213.71)"/><path class="cls-20" d="M1105.26,425l6.84,18.06,7.28-17.87,6.1.08-.38,29.38-4.93-.06.26-19.82-6.67,16.75-3.57,0L1104,434.56l-.26,19.81-5-.06.38-29.39Z" transform="translate(-122.9 -213.71)"/><path class="cls-20" d="M1136.33,425.41,1136,449l10.41.13-.08,5.8-15.88-.21.38-29.38Z" transform="translate(-122.9 -213.71)"/><circle class="cls-3" cx="286.89" cy="723.65" r="59.29" transform="translate(-253.14 -147.31) rotate(-10.78)"/><path class="cls-20" d="M259.46,721.78c-1.73.52-2.68,1.62-2.23,3.12,1.53,5.07,12.81-1.41,15.76,8.53,1.62,5.39-1.37,9.47-6.41,11a15,15,0,0,1-11.37-1.35l.53-5.69c3.09,1.81,6.9,2.43,9.3,1.71,2.12-.64,3.1-2,2.6-3.66-1.57-5.2-12.79,1.48-15.72-8.28-1.51-5,1.09-9.22,6.36-10.8a14.87,14.87,0,0,1,9.55.39l-.43,5.75C264.47,721.47,261.28,721.23,259.46,721.78Z" transform="translate(-122.9 -213.71)"/><path class="cls-20" d="M304.08,736.57a9.59,9.59,0,0,1-5.53,5c-3.09.93-6.42-.6-9.15-3.9-6.86,1.84-13.76-2.61-16.13-10.48-2.41-8,1.07-15.56,8-17.66s14,2.31,16.43,10.31c1.85,6.14.23,12.08-3.79,15.47a4.26,4.26,0,0,0,3.72,1.16c1.11-.33,2.32-1.6,3.35-3.37Zm-15.92-4.48c3.8-1.15,5.76-5.86,4.3-10.7s-5.66-7.61-9.46-6.47-5.92,5.81-4.46,10.66S284.35,733.23,288.16,732.09Z" transform="translate(-122.9 -213.71)"/><path class="cls-20" d="M302.3,703.41,309,725.53l9.76-2.93,1.63,5.44-14.89,4.47L297.16,705Z" transform="translate(-122.9 -213.71)"/><circle class="cls-3" cx="856.6" cy="288.92" r="70.98" transform="translate(-76.3 476.62) rotate(-45)"/><path class="cls-20" d="M837.51,285.35c1.56,6.78-1.78,11.67-9.18,13.38l-5.78,1.34,1.92,8.32-6.57,1.52-6.73-29.12,12.36-2.85C830.93,276.23,836,278.91,837.51,285.35ZM831.32,287c-.75-3.24-3.21-4.38-6.87-3.54L819,284.72l2.28,9.86,5.45-1.26C830.39,292.47,832.09,290.33,831.32,287Z" transform="translate(-122.9 -213.71)"/><path class="cls-20" d="M845.93,272.76l2.81,12.15,13.18-3.05-2.8-12.14,6.57-1.52,6.73,29.11-6.58,1.52-2.65-11.48-13.18,3,2.65,11.48-6.57,1.52-6.73-29.12Z" transform="translate(-122.9 -213.71)"/><path class="cls-20" d="M898.41,271.28c1.57,6.79-1.77,11.68-9.17,13.39L883.45,286l1.93,8.32-6.57,1.52-6.73-29.12,12.35-2.85C891.84,262.16,896.93,264.84,898.41,271.28Zm-6.19,1.65c-.75-3.24-3.2-4.38-6.86-3.54l-5.45,1.26,2.28,9.86,5.45-1.26C891.3,278.41,893,276.26,892.22,272.93Z" transform="translate(-122.9 -213.71)"/><circle class="cls-6" cx="1762.17" cy="855.85" r="41.37" transform="translate(-211.95 1283.01) rotate(-45)"/><path class="cls-20" d="M1751.73,851.65a5.86,5.86,0,0,0,.07,11.71,7.42,7.42,0,0,0,4.93-2.26l2.54,2.72a11.11,11.11,0,0,1-7.66,3.45,9.66,9.66,0,0,1-10-9.67c0-5.48,4.32-9.64,10.08-9.68a10.87,10.87,0,0,1,7.52,3.11l-2.48,3.06A6.86,6.86,0,0,0,1751.73,851.65Z" transform="translate(-122.9 -213.71)"/><path class="cls-20" d="M1774.94,855.47l-.46,4.1,3.67,0-.31,3-3.72,0-.52,4.35-3,0,.51-4.35-4.13,0-.51,4.35h-3l.51-4.35-3.69,0,.3-3,3.75,0,.47-4.11-3.67,0,.3-3,3.73,0,.54-4.54,3,0-.55,4.54,4.13,0,.54-4.54,3,0-.54,4.54,3.69,0-.28,3Zm-3,0-4.13,0-.49,4.11,4.13,0Z" transform="translate(-122.9 -213.71)"/><circle class="cls-8" cx="375.54" cy="1348.28" r="63.69" transform="translate(-966.28 446.74) rotate(-45)"/><path class="cls-20" d="M362.14,1336.74a9.94,9.94,0,0,0,.13,19.88,12.51,12.51,0,0,0,8.38-3.84l4.31,4.63a18.88,18.88,0,0,1-13,5.85c-9.65.07-17-7-17-16.4s7.32-16.38,17.1-16.44a18.35,18.35,0,0,1,12.77,5.27l-4.21,5.19A11.7,11.7,0,0,0,362.14,1336.74Z" transform="translate(-122.9 -213.71)"/><path class="cls-20" d="M401.57,1343.22l-.79,7,6.23,0-.52,5.13-6.32,0-.88,7.38-5.12,0,.88-7.39-7,0-.88,7.39-5.17,0,.88-7.39-6.28,0,.53-5.13,6.36,0,.79-7-6.23,0,.52-5.12,6.32,0,.92-7.71,5.12,0-.92,7.71,7,0,.92-7.71,5.17,0-.92,7.71,6.28,0-.48,5.12Zm-5.12,0-7,0-.83,7,7,0Z" transform="translate(-122.9 -213.71)"/><circle class="cls-3" cx="1450.01" cy="732" r="66.03"/><path class="cls-20" d="M1549.46,938.89a10.24,10.24,0,0,0,0,20.47,12.87,12.87,0,0,0,8.65-3.89l4.42,4.8a19.52,19.52,0,0,1-13.45,5.93c-9.93,0-17.43-7.36-17.43-17s7.65-16.81,17.72-16.81a18.91,18.91,0,0,1,13.11,5.51l-4.37,5.32A12,12,0,0,0,1549.46,938.89Z" transform="translate(-122.9 -213.71)"/><path class="cls-20" d="M1585.79,952.81h-8.13v8H1573v-8h-8.13V948H1573v-8.08h4.65V948h8.13Z" transform="translate(-122.9 -213.71)"/><path class="cls-20" d="M1609.81,952.81h-8.12v8H1597v-8h-8.12V948H1597v-8.08h4.66V948h8.12Z" transform="translate(-122.9 -213.71)"/><path class="cls-3" d="M309.56,480.59l-1.64-.14c.27-3.26.61-6.57,1-9.82l1.63.2C310.16,474.06,309.82,477.34,309.56,480.59Zm3-22.68-1.61-.29c.58-3.22,1.23-6.47,1.95-9.68l1.6.36C313.75,451.48,313.1,454.71,312.52,457.91Zm5.13-22.3-1.58-.44c.87-3.14,1.83-6.32,2.84-9.46l1.56.5C319.47,429.34,318.52,432.5,317.65,435.61Zm7.16-21.74-1.54-.59c1.17-3.06,2.41-6.15,3.69-9.17l1.51.65C327.2,407.75,326,410.82,324.81,413.87Zm9.08-21-1.48-.72c1.43-2.94,2.93-5.91,4.47-8.81l1.45.77C336.8,387,335.31,389.91,333.89,392.84Zm10.86-20.18-1.41-.84c1.68-2.82,3.43-5.64,5.21-8.4l1.38.89C348.16,367.05,346.42,369.86,344.75,372.66Zm12.53-19.18-1.34-1c1.91-2.68,3.89-5.35,5.88-7.94l1.3,1C361.14,348.16,359.18,350.81,357.28,353.48Zm14.06-18.09-1.25-1.06c2.12-2.51,4.31-5,6.51-7.43l1.21,1.1C375.63,330.41,373.45,332.9,371.34,335.39Zm15.5-16.88-1.17-1.16c2.31-2.32,4.7-4.63,7.09-6.87l1.13,1.19C391.5,313.9,389.13,316.2,386.84,318.51Zm197.89-1.41a43,43,0,0,1-10-1.2l.38-1.59a41.37,41.37,0,0,0,9.57,1.15Zm13.14-2.42-.61-1.52a26.38,26.38,0,0,0,8.06-5l1.11,1.22A28,28,0,0,1,597.87,314.68Zm-35.46-3.74a40.93,40.93,0,0,1-8-6.08l1.15-1.17a38.64,38.64,0,0,0,7.65,5.83Zm-158.76-8-1.06-1.25c2.49-2.12,5.06-4.23,7.63-6.26l1,1.28C408.68,298.75,406.13,300.84,403.65,303Zm210.2-4.76-1.54-.57a30,30,0,0,0,1.82-9.37l1.64.06A31.76,31.76,0,0,1,613.85,298.19Zm-67-4.32c-.17-.39-.33-.79-.49-1.19a43.9,43.9,0,0,1-2.26-8.45l1.62-.26a41.25,41.25,0,0,0,2.18,8.12c.14.39.3.76.46,1.14Zm-125.16-5-.95-1.33c2.67-1.92,5.41-3.81,8.12-5.62l.91,1.37C427.06,285.05,424.34,286.93,421.68,288.84Zm19.15-12.55-.84-1.41c2.81-1.68,5.7-3.33,8.58-4.9l.78,1.44C446.49,273,443.63,274.62,440.83,276.29Zm171.46-.69a44.22,44.22,0,0,0-3.93-8.81l1.42-.83a46.4,46.4,0,0,1,4.08,9.14Zm-66.73-4.48-1.62-.21a53.46,53.46,0,0,1,2.23-9.74l1.56.51A52.06,52.06,0,0,0,545.56,271.12ZM461,265.42l-.72-1.47c3-1.44,6-2.82,9-4.13l.66,1.5C466.93,262.62,463.93,264,461,265.42Zm139.44-8.76a42.8,42.8,0,0,0-7.37-5.72l-.27-.16.84-1.41.28.17a44.75,44.75,0,0,1,7.66,5.94ZM482,256.39l-.58-1.53c3.07-1.16,6.2-2.27,9.32-3.3l.51,1.55C488.18,254.14,485.07,255.24,482,256.39Zm71.1-6.46-1.41-.84a65.56,65.56,0,0,1,5.16-7.45c-2.6,0-5.24,0-8,.11l-.07-1.64c3.43-.16,6.68-.18,9.91-.07l-.06,1.65-.32,0,.36.3A66.27,66.27,0,0,0,553.12,249.93Zm-49.32-.6-.43-1.59c3.17-.87,6.4-1.68,9.58-2.41l.37,1.6C510.16,247.66,507,248.46,503.8,249.33ZM581,245.42A70.88,70.88,0,0,0,571.6,243l.29-1.62a74,74,0,0,1,9.65,2.44Zm-54.86-1.06-.28-1.62c2.41-.41,4.86-.79,7.29-1.13.83-.12,1.66-.23,2.5-.33l.2,1.63c-.83.1-1.65.21-2.47.33C531,243.57,528.55,244,526.16,244.36Zm41.69-11.56-1-1.26a64.13,64.13,0,0,1,8.16-5.72l.83,1.41A63.57,63.57,0,0,0,567.85,232.8Zm164.07-5.22c-2.73,0-5.58-.07-8.45-.22l.08-1.64c2.85.15,5.67.22,8.37.22h1.42l0,1.64Zm-21.59-1.33c-3.09-.35-6.29-.77-9.79-1.29l.24-1.62c3.48.51,6.67.93,9.74,1.28Zm-22.77-3.39q-4.26-.74-8.5-1.5l-1.21-.21.29-1.61,1.2.21,8.5,1.49Zm-100-1.19-.58-1.54a93.37,93.37,0,0,1,9.47-3l.41,1.58A89.31,89.31,0,0,0,587.52,221.67Zm77.4-2.75c-3.54-.58-6.72-1.07-9.71-1.49l.23-1.62c3,.42,6.19.91,9.75,1.49Zm-55.31-2.63-.21-1.63c3.18-.41,6.5-.7,9.88-.87l.08,1.64C616,215.6,612.74,215.89,609.61,216.29Zm32.6-.35c-3.35-.28-6.64-.48-9.79-.59l.05-1.64c3.18.11,6.5.31,9.88.6Z" transform="translate(-122.9 -213.71)"/><path class="cls-3" d="M1529.68,476.81l-1-1.34a93.52,93.52,0,0,0,7.62-6.08l1.09,1.23A95.21,95.21,0,0,1,1529.68,476.81Zm17-15.62-1.24-1.07c2.1-2.45,4.12-5,6-7.71l1.35.95C1550.92,456.07,1548.86,458.7,1546.72,461.19Zm13-19.1-1.44-.77c1.52-2.85,2.93-5.82,4.19-8.82l1.51.63C1562.73,436.18,1561.3,439.2,1559.75,442.09Zm8.63-21.44-1.58-.45c.89-3.13,1.64-6.33,2.23-9.51l1.61.3C1570.05,414.22,1569.28,417.47,1568.38,420.65Zm3.86-22.79-1.64-.09c.11-1.91.17-3.84.17-5.74,0-1.35,0-2.69-.08-4l1.64-.06c.05,1.36.08,2.72.08,4.09C1572.41,394,1572.35,395.93,1572.24,397.86Zm-3-22.79a91.54,91.54,0,0,0-2.24-9.49l1.58-.47a93,93,0,0,1,2.27,9.67Zm-6.81-21.67a94.74,94.74,0,0,0-4.53-8.63l1.41-.84a93.3,93.3,0,0,1,4.61,8.79Zm-11.91-19.35c-2-2.54-4.16-5-6.41-7.37l1.18-1.13c2.29,2.39,4.48,4.9,6.52,7.48Zm-16-16.19c-2.52-2-5.17-4-7.86-5.81l.91-1.36c2.74,1.84,5.43,3.82,8,5.9Zm-19.1-12.39c-2.9-1.47-5.9-2.82-8.91-4l.61-1.53c3,1.21,6.09,2.58,9,4.07Zm-21.29-8a96.55,96.55,0,0,0-9.57-1.94l.25-1.62a99,99,0,0,1,9.72,2Zm-32.28-2.57-.16-1.63c2.93-.29,5.93-.44,8.91-.44h1l0,1.64h-1C1467.71,294.45,1464.77,294.6,1461.89,294.88Z" transform="translate(-122.9 -213.71)"/><path class="cls-3" d="M1748.17,960.86c-1.48,0-3,0-4.45,0l0-1.64q4.92.09,9.81,0l0,1.64C1751.8,960.84,1750,960.86,1748.17,960.86Zm-17.61-.61c-3.19-.21-6.5-.48-9.84-.8l.16-1.63c3.32.32,6.61.59,9.79.8Zm36.21-.18-.15-1.63c3.29-.29,6.57-.67,9.74-1.12l.23,1.62C1773.39,959.4,1770.08,959.78,1766.77,960.07Zm-59.12-2.1c-3.26-.42-6.51-.88-9.77-1.36l.24-1.63c3.25.48,6.49.94,9.74,1.36Zm81.92-1.41-.36-1.6c3.2-.72,6.39-1.55,9.48-2.46l.46,1.58C1796,955,1792.8,955.83,1789.57,956.56Zm-104.67-2c-3.25-.54-6.49-1.11-9.72-1.68l.29-1.62c3.22.58,6.46,1.14,9.7,1.68Zm126.7-4.92-.64-1.51c3-1.26,6-2.67,8.85-4.18l.76,1.45C1817.64,946.92,1814.63,948.34,1811.6,949.62Zm20.33-11-.91-1.36c2.7-1.81,5.35-3.76,7.89-5.77l1,1.28C1837.36,934.82,1834.67,936.78,1831.93,938.62ZM1849.8,924l-1.15-1.16c2.32-2.31,4.54-4.73,6.61-7.19l1.25,1C1854.42,919.18,1852.16,921.64,1849.8,924ZM1864.36,906l-1.38-.88a94.88,94.88,0,0,0,4.82-8.47l1.47.73A93.15,93.15,0,0,1,1864.36,906Zm9.92-20.87-1.56-.5a75.78,75.78,0,0,0,2.37-9.44l1.62.3A77.28,77.28,0,0,1,1874.28,885.17Zm2-22.84a70.68,70.68,0,0,0-.65-9.57l1.61-.37,0,.14a72.23,72.23,0,0,1,.66,9.74ZM1872.71,840a77.57,77.57,0,0,0-3.55-9.06l1.48-.69a79,79,0,0,1,3.64,9.24Zm-9.91-20.4c-1.74-2.65-3.68-5.3-5.77-7.88l1.28-1c2.12,2.62,4.09,5.32,5.86,8ZM1848.29,802c-2.25-2.24-4.67-4.48-7.19-6.65l1.07-1.24c2.55,2.2,5,4.46,7.28,6.73Zm-17.43-14.78c-2.56-1.88-5.28-3.76-8.06-5.58l.9-1.37c2.81,1.84,5.54,3.73,8.13,5.63Zm-19.23-12.39c-2.79-1.59-5.7-3.16-8.63-4.67l.75-1.46c3,1.52,5.88,3.1,8.69,4.7Zm-20.38-10.47q-4.44-2.11-8.92-4.17l.69-1.5q4.49,2.07,8.93,4.19Zm-20.85-9.65q-4.49-2.06-9-4.14l.7-1.49q4.45,2.08,8.93,4.14Zm-20.79-9.85c-3.14-1.57-6-3-8.77-4.53l.77-1.45c2.76,1.48,5.61,3,8.73,4.51Zm-20.22-11c-2.88-1.75-5.69-3.55-8.32-5.34l.92-1.35c2.61,1.77,5.39,3.55,8.25,5.29Zm-18.94-13.18c-2.6-2.1-5.11-4.28-7.48-6.49l1.12-1.2c2.34,2.18,4.83,4.34,7.4,6.41ZM1694,704.49c-2.06-2.55-4-5.25-5.85-8l1.37-.9c1.79,2.73,3.73,5.38,5.76,7.89ZM1681.57,685c-1.45-3-2.75-6.07-3.88-9.15l1.55-.56a96.34,96.34,0,0,0,3.8,9Zm-7.51-21.88a82.72,82.72,0,0,1-1.42-9.84l1.64-.13a79.67,79.67,0,0,0,1.39,9.64Zm.38-22.92-1.63-.18a61.19,61.19,0,0,1,1.89-9.79l1.58.44A59.05,59.05,0,0,0,1674.44,640.17Zm6.79-21.44-1.43-.81a53.66,53.66,0,0,1,5.73-8.18l1.25,1.06A52,52,0,0,0,1681.23,618.73Z" transform="translate(-122.9 -213.71)"/><path class="cls-3" d="M370.54,1109.65c-3.22-.57-6.48-1.27-9.69-2.08l.4-1.59c3.18.8,6.4,1.49,9.57,2Zm-22.33-5.87c-3.08-1.08-6.19-2.29-9.23-3.59l.65-1.51c3,1.29,6.08,2.48,9.12,3.55Zm-21.12-9.31c-2.9-1.55-5.78-3.21-8.58-5l.87-1.39c2.77,1.72,5.62,3.36,8.48,4.9Zm-19.48-12.39c-2.63-2-5.23-4-7.74-6.18l1.07-1.25c2.47,2.11,5.05,4.17,7.65,6.11Zm-17.41-15.16c-2.32-2.35-4.58-4.79-6.72-7.26l1.24-1.08c2.11,2.45,4.35,4.86,6.65,7.19Zm-14.93-17.6c-1.93-2.67-3.79-5.43-5.53-8.22l1.39-.87c1.72,2.76,3.56,5.49,5.47,8.12Zm-12-19.72c-1.49-2.95-2.88-6-4.14-9l1.52-.63c1.24,3,2.62,6,4.08,8.89Z" transform="translate(-122.9 -213.71)"/><path class="cls-3" d="M1228.24,491.55l-1.62-.26c.52-3.24,1-6.51,1.39-9.72l1.63.2C1229.24,485,1228.76,488.29,1228.24,491.55Zm2.72-22.88-1.64-.13c.25-3.3.43-6.59.53-9.8l1.64.06C1231.39,462,1231.2,465.35,1231,468.67Zm-1-23c-.09-3.3-.25-6.6-.48-9.79l1.64-.12c.23,3.22.39,6.54.48,9.87ZM1228,422.87c-.46-3.26-1-6.51-1.65-9.66l1.61-.32c.64,3.18,1.2,6.46,1.67,9.75Zm-4.71-22.36c-.86-3-1.82-6.05-2.85-9l-.13-.35,1.55-.54.12.34c1,3,2,6,2.89,9.09Zm-7.9-21.42c-1.36-2.95-2.85-5.89-4.42-8.74l1.44-.79c1.58,2.88,3.09,5.86,4.47,8.84Zm-11.26-19.86c-1.84-2.69-3.79-5.34-5.81-7.87l1.28-1c2,2.56,4,5.24,5.89,8Zm-14.45-17.63c-2.3-2.33-4.7-4.58-7.14-6.68l1.07-1.25c2.47,2.13,4.91,4.41,7.24,6.78Zm-121.48-1.78a28.81,28.81,0,0,1-4.39-.32l.24-1.62a30,30,0,0,0,9.54-.18l.29,1.62A33.29,33.29,0,0,1,1068.24,339.82Zm18.17-5.22-.84-1.41a36.75,36.75,0,0,0,7.54-6l1.18,1.15A38.52,38.52,0,0,1,1086.41,334.6Zm-28.21-1-1.17-1.16a75.92,75.92,0,0,1,7.48-6.57l1,1.3A72.59,72.59,0,0,0,1058.2,333.6Zm114-6.61c-2.71-1.83-5.51-3.54-8.34-5.09l.8-1.44c2.86,1.57,5.71,3.31,8.46,5.17Zm-95.81-6.82-.77-1.45a84.26,84.26,0,0,1,9-4.12l.59,1.53A83.78,83.78,0,0,0,1076.43,320.17Zm25.18-3-1.52-.61c.08-.22.17-.44.25-.65a36,36,0,0,0,1.3-4.37c-1.31.24-2.61.5-3.9.79l-.36-1.6c1.52-.34,3.07-.65,4.62-.92.16-.85.28-1.71.38-2.58l1.63.19c-.08.71-.18,1.41-.29,2.11,1.14-.17,2.3-.33,3.45-.46l.19,1.63c-1.32.15-2.65.33-4,.55a38.56,38.56,0,0,1-1.51,5.22Zm50.5-.83a89.28,89.28,0,0,0-9.25-3.05l.42-1.58a88.15,88.15,0,0,1,9.31,3.06l-.17.81Zm-22-5.55a95.8,95.8,0,0,0-9.74-.7l0-1.64a96.09,96.09,0,0,1,9.9.72Zm-28.32-16.37a48,48,0,0,0-2.87-9.23l1.51-.64a49.19,49.19,0,0,1,3,9.55Zm-9.35-20.38a51,51,0,0,0-6.57-7.1l1.09-1.22a52,52,0,0,1,6.79,7.33ZM976.93,261.88l-.46-1.58q4.72-1.38,9.46-2.74l.45,1.58C983.22,260,980.07,261,976.93,261.88Zm98.34-2.32a67.84,67.84,0,0,0-8.85-4L1067,254a69.75,69.75,0,0,1,9.06,4.13ZM999,255.73l-.4-1.59c3.41-.86,6.56-1.58,9.63-2.21l.33,1.61C1005.56,254.16,1002.43,254.88,999,255.73Zm54.88-3.68a91.14,91.14,0,0,0-9.67-1.31l.13-1.64a94.2,94.2,0,0,1,9.85,1.34Zm-32.43-.67-.2-1.63c3.37-.41,6.69-.7,9.87-.85l.08,1.63C1028.1,250.68,1024.82,251,1021.49,251.38Z" transform="translate(-122.9 -213.71)"/></g></g></svg>